<svg xmlns="http://www.w3.org/2000/svg" xmlns:xlink="http://www.w3.org/1999/xlink" width="376" height="325" viewBox="0 0 376 325">
  <defs>
    <clipPath id="clip-Artboard_5">
      <rect width="376" height="325"/>
    </clipPath>
  </defs>
  <g id="Artboard_5" data-name="Artboard – 5" clip-path="url(#clip-Artboard_5)">
    <g id="Top">
      <g id="Left">
        <path id="Base" d="M5,0H187a0,0,0,0,1,0,0V186a0,0,0,0,1,0,0H0a0,0,0,0,1,0,0V5A5,5,0,0,1,5,0Z" fill="#29344b"/>
        <text id="GREAT" transform="translate(10 60)" fill="#e7c296" font-size="53" font-family="Roboto-Black, Roboto" font-weight="800" letter-spacing="0.05em"><tspan x="0" y="0">GREAT</tspan></text>
        <text id="_7.44_AAA" data-name="7.44 AAA" transform="translate(10 97)" fill="#e7c296" font-size="25" font-family="Roboto-Regular, Roboto" letter-spacing="0.01em"><tspan x="0" y="0">7.44 AAA</tspan></text>
      </g>
      <g id="Right">
        <rect id="Base-2" data-name="Base" width="63" height="186" transform="translate(187)" fill="#29344b"/>
        <g id="star" transform="translate(215.156 22)">
          <path id="star-2" data-name="star" d="M14.422,2,18.26,9.776l8.583,1.255L20.633,17.08,22.1,25.626l-7.677-4.037L6.745,25.626,8.211,17.08,2,11.031l8.583-1.255Z" transform="translate(-2 -2)" fill="none" stroke="#e7c296" stroke-linecap="round" stroke-linejoin="round" stroke-width="3"/>
        </g>
        <g id="book" transform="translate(218.5 65)">
          <path id="Path_6" data-name="Path 6" d="M4,19.963A2.963,2.963,0,0,1,6.963,17h16" transform="translate(-4 0.78)" fill="none" stroke="#e7c296" stroke-linecap="round" stroke-linejoin="round" stroke-width="3"/>
          <path id="Path_7" data-name="Path 7" d="M6.963,2h16V25.707h-16A2.963,2.963,0,0,1,4,22.744V4.963A2.963,2.963,0,0,1,6.963,2Z" transform="translate(-4 -2)" fill="none" stroke="#e7c296" stroke-linecap="round" stroke-linejoin="round" stroke-width="3"/>
        </g>
        <g id="settings" transform="translate(215 109)">
          <circle id="Ellipse_1" data-name="Ellipse 1" cx="3.5" cy="3.5" r="3.5" transform="translate(9 9)" stroke-width="3" stroke="#e7c296" stroke-linecap="round" stroke-linejoin="round" fill="none"/>
          <path id="Path_5" data-name="Path 5" d="M21.909,16.909a1.875,1.875,0,0,0,.375,2.068l.068.068a2.274,2.274,0,1,1-3.216,3.216l-.068-.068a1.89,1.89,0,0,0-3.2,1.341v.193a2.273,2.273,0,1,1-4.545,0v-.1a1.875,1.875,0,0,0-1.227-1.716,1.875,1.875,0,0,0-2.068.375l-.068.068a2.274,2.274,0,1,1-3.216-3.216l.068-.068a1.89,1.89,0,0,0-1.341-3.2H3.273a2.273,2.273,0,0,1,0-4.545h.1a1.875,1.875,0,0,0,1.716-1.227,1.875,1.875,0,0,0-.375-2.068l-.068-.068A2.274,2.274,0,1,1,7.864,4.739l.068.068A1.875,1.875,0,0,0,10,5.182h.091a1.875,1.875,0,0,0,1.136-1.716V3.273a2.273,2.273,0,0,1,4.545,0v.1a1.89,1.89,0,0,0,3.2,1.341l.068-.068a2.274,2.274,0,1,1,3.216,3.216l-.068.068A1.875,1.875,0,0,0,21.818,10v.091a1.875,1.875,0,0,0,1.716,1.136h.193a2.273,2.273,0,1,1,0,4.545h-.1A1.875,1.875,0,0,0,21.909,16.909Z" transform="translate(-1 -1)" fill="none" stroke="#e7c296" stroke-linecap="round" stroke-linejoin="round" stroke-width="3"/>
        </g>
      </g>
    </g>
    <g id="Bottom">
      <g id="Top-2" data-name="Top">
        <rect id="Base-3" data-name="Base" width="250" height="70" transform="translate(0 186)" fill="#29344b"/>
        <g id="feather" transform="translate(8 201.008)">
          <path id="Path_1" data-name="Path 1" d="M32.562,20.526A10.857,10.857,0,0,0,17.208,5.172L5,17.379V32.752H20.373Z" transform="translate(2.426)" fill="none" stroke="#e7c296" stroke-linecap="round" stroke-linejoin="round" stroke-width="3"/>
          <line id="Line_1" data-name="Line 1" x1="26" y2="25" transform="translate(2 12.992)" fill="none" stroke="#e7c296" stroke-linecap="round" stroke-linejoin="round" stroke-width="3"/>
          <line id="Line_2" data-name="Line 2" x1="14.532" y1="0.026" transform="translate(15.5 25.492)" fill="none" stroke="#e7c296" stroke-linecap="round" stroke-linejoin="round" stroke-width="3"/>
        </g>
        <text id="_29344B" data-name="#29344B" transform="translate(66 230)" fill="#e7c296" font-size="25" font-family="Roboto-Black, Roboto" font-weight="800" letter-spacing="0.05em"><tspan x="0" y="0">#29344B</tspan></text>
        <g id="edit" transform="translate(217.879 209.121)">
          <path id="Path_2" data-name="Path 2" d="M11,4H4A2,2,0,0,0,2,6V20a2,2,0,0,0,2,2H18a2,2,0,0,0,2-2V13" fill="none" stroke="#e7c296" stroke-linecap="round" stroke-linejoin="round" stroke-width="2.5"/>
          <path id="Path_3" data-name="Path 3" d="M18.5,2.5a2.121,2.121,0,0,1,3,3L12,15,8,16l1-4Z" fill="none" stroke="#e7c296" stroke-linecap="round" stroke-linejoin="round" stroke-width="2.5"/>
        </g>
        <g id="clipboard" transform="translate(193 209)">
          <path id="Path_4" data-name="Path 4" d="M16,4h2a2.007,2.007,0,0,1,2,2.013V20.108a2.007,2.007,0,0,1-2,2.013H6a2.007,2.007,0,0,1-2-2.013V6.013A2.007,2.007,0,0,1,6,4H8" fill="none" stroke="#e7c296" stroke-linecap="round" stroke-linejoin="round" stroke-width="2.5"/>
          <rect id="Rectangle_1" data-name="Rectangle 1" width="8" height="4" rx="1" transform="translate(8 2)" stroke-width="2.5" stroke="#e7c296" stroke-linecap="round" stroke-linejoin="round" fill="none"/>
        </g>
      </g>
      <g id="Bot">
        <path id="Base-4" data-name="Base" d="M0,0H250a0,0,0,0,1,0,0V69a0,0,0,0,1,0,0H5a5,5,0,0,1-5-5V0A0,0,0,0,1,0,0Z" transform="translate(0 256)" fill="#e7c296"/>
        <g id="feather-2" data-name="feather" transform="translate(8 271.008)">
          <path id="Path_1-2" data-name="Path 1" d="M32.562,20.526A10.857,10.857,0,0,0,17.208,5.172L5,17.379V32.752H20.373Z" transform="translate(2.426)" fill="none" stroke="#29344b" stroke-linecap="round" stroke-linejoin="round" stroke-width="3"/>
          <line id="Line_1-2" data-name="Line 1" x1="26" y2="25" transform="translate(2 12.992)" fill="none" stroke="#29344b" stroke-linecap="round" stroke-linejoin="round" stroke-width="3"/>
          <line id="Line_2-2" data-name="Line 2" x1="14.532" y1="0.026" transform="translate(15.5 25.492)" fill="none" stroke="#29344b" stroke-linecap="round" stroke-linejoin="round" stroke-width="3"/>
        </g>
        <text id="_E7C296" data-name="#E7C296" transform="translate(66 300)" fill="#29344b" font-size="25" font-family="Roboto-Black, Roboto" font-weight="800" letter-spacing="0.05em"><tspan x="0" y="0">#E7C296</tspan></text>
        <g id="edit-2" data-name="edit" transform="translate(217.879 278.121)">
          <path id="Path_2-2" data-name="Path 2" d="M11,4H4A2,2,0,0,0,2,6V20a2,2,0,0,0,2,2H18a2,2,0,0,0,2-2V13" fill="none" stroke="#29344b" stroke-linecap="round" stroke-linejoin="round" stroke-width="2.5"/>
          <path id="Path_3-2" data-name="Path 3" d="M18.5,2.5a2.121,2.121,0,0,1,3,3L12,15,8,16l1-4Z" fill="none" stroke="#29344b" stroke-linecap="round" stroke-linejoin="round" stroke-width="2.5"/>
        </g>
        <g id="clipboard-2" data-name="clipboard" transform="translate(193 278)">
          <path id="Path_4-2" data-name="Path 4" d="M16,4h2a2.007,2.007,0,0,1,2,2.013V20.108a2.007,2.007,0,0,1-2,2.013H6a2.007,2.007,0,0,1-2-2.013V6.013A2.007,2.007,0,0,1,6,4H8" fill="none" stroke="#29344b" stroke-linecap="round" stroke-linejoin="round" stroke-width="2.5"/>
          <rect id="Rectangle_1-2" data-name="Rectangle 1" width="8" height="4" rx="1" transform="translate(8 2)" stroke-width="2.5" stroke="#29344b" stroke-linecap="round" stroke-linejoin="round" fill="none"/>
        </g>
      </g>
    </g>
    <g id="Bookmark">
      <path id="bg" d="M0,0H121a5,5,0,0,1,5,5V320a5,5,0,0,1-5,5H0a0,0,0,0,1,0,0V0A0,0,0,0,1,0,0Z" transform="translate(250)" fill="#e7c296"/>
      <text id="BOOKMARKS" transform="translate(260 24)" fill="#29344b" font-size="15" font-family="Roboto-Black, Roboto" font-weight="800" letter-spacing="0.05em"><tspan x="0" y="0">BOOKMARKS</tspan></text>
      <g id="list">
        <g id="item" transform="translate(260 39)">
          <rect id="Rectangle_2" data-name="Rectangle 2" width="106" height="50" rx="5" fill="#606060"/>
          <text id="FOREGROUND" transform="translate(8 30)" fill="#d6ed17" font-size="13" font-family="Roboto-Bold, Roboto" font-weight="700" letter-spacing="0.05em"><tspan x="0" y="0">FOREGROUND</tspan></text>
          <g id="Particels">
            <circle id="Ellipse_2" data-name="Ellipse 2" cx="3.5" cy="3.5" r="3.5" transform="translate(12 6)" fill="#d6ed17"/>
            <path id="Rectangle_3" data-name="Rectangle 3" d="M9,0H9a9,9,0,0,1,9,9V9a0,0,0,0,1,0,0H0A0,0,0,0,1,0,9V9A9,9,0,0,1,9,0Z" transform="translate(61 41)" fill="#d6ed17"/>
            <path id="Rectangle_4" data-name="Rectangle 4" d="M0,0H29a0,0,0,0,1,0,0V0A14,14,0,0,1,15,14H14A14,14,0,0,1,0,0V0A0,0,0,0,1,0,0Z" transform="translate(70)" fill="#d6ed17"/>
          </g>
          <text id="Color_Set_1" data-name="Color Set 1" transform="translate(0 65)" fill="#29344b" font-size="12" font-family="Roboto-Black, Roboto" font-weight="800" letter-spacing="0.05em"><tspan x="0" y="0">Color Set 1</tspan></text>
          <g id="edit-3" transform="translate(93.454 53.041)">
            <path id="Path_9" data-name="Path 9" d="M12,20h4.773" transform="translate(-4.227 -8.041)" fill="none" stroke="#29344b" stroke-linecap="round" stroke-linejoin="round" stroke-width="1.5"/>
            <path id="Path_10" data-name="Path 10" d="M10.16,3.208A1.125,1.125,0,1,1,11.751,4.8L5.121,11.429,3,11.959l.53-2.121Z" transform="translate(0 0)" fill="none" stroke="#29344b" stroke-linecap="round" stroke-linejoin="round" stroke-width="1.5"/>
          </g>
        </g>
        <g id="item-2" data-name="item" transform="translate(260 114)">
          <rect id="Rectangle_2-2" data-name="Rectangle 2" width="106" height="50" rx="5" fill="#feafab"/>
          <text id="FOREGROUND-2" data-name="FOREGROUND" transform="translate(8 30)" fill="#23a3e0" font-size="13" font-family="Roboto-Bold, Roboto" font-weight="700" letter-spacing="0.05em"><tspan x="0" y="0">FOREGROUND</tspan></text>
          <g id="Particels-2" data-name="Particels">
            <circle id="Ellipse_2-2" data-name="Ellipse 2" cx="3.5" cy="3.5" r="3.5" transform="translate(12 6)" fill="#23a3e0"/>
            <path id="Rectangle_3-2" data-name="Rectangle 3" d="M9,0H9a9,9,0,0,1,9,9V9a0,0,0,0,1,0,0H0A0,0,0,0,1,0,9V9A9,9,0,0,1,9,0Z" transform="translate(61 41)" fill="#23a3e0"/>
            <path id="Rectangle_4-2" data-name="Rectangle 4" d="M0,0H29a0,0,0,0,1,0,0V0A14,14,0,0,1,15,14H14A14,14,0,0,1,0,0V0A0,0,0,0,1,0,0Z" transform="translate(70)" fill="#23a3e0"/>
          </g>
          <text id="Color_Set_2" data-name="Color Set 2" transform="translate(0 65)" fill="#29344b" font-size="12" font-family="Roboto-Black, Roboto" font-weight="800" letter-spacing="0.05em"><tspan x="0" y="0">Color Set 2</tspan></text>
          <g id="edit-3-2" data-name="edit-3" transform="translate(93.454 53.041)">
            <path id="Path_9-2" data-name="Path 9" d="M12,20h4.773" transform="translate(-4.227 -8.041)" fill="none" stroke="#29344b" stroke-linecap="round" stroke-linejoin="round" stroke-width="1.5"/>
            <path id="Path_10-2" data-name="Path 10" d="M10.16,3.208A1.125,1.125,0,1,1,11.751,4.8L5.121,11.429,3,11.959l.53-2.121Z" transform="translate(0 0)" fill="none" stroke="#29344b" stroke-linecap="round" stroke-linejoin="round" stroke-width="1.5"/>
          </g>
        </g>
        <g id="item-3" data-name="item" transform="translate(260 189)">
          <rect id="Rectangle_2-3" data-name="Rectangle 2" width="106" height="50" rx="5" fill="#f24d4d"/>
          <text id="FOREGROUND-3" data-name="FOREGROUND" transform="translate(8 30)" fill="#eff1e7" font-size="13" font-family="Roboto-Bold, Roboto" font-weight="700" letter-spacing="0.05em"><tspan x="0" y="0">FOREGROUND</tspan></text>
          <g id="Particels-3" data-name="Particels">
            <circle id="Ellipse_2-3" data-name="Ellipse 2" cx="3.5" cy="3.5" r="3.5" transform="translate(12 6)" fill="#eff1e7"/>
            <path id="Rectangle_3-3" data-name="Rectangle 3" d="M9,0H9a9,9,0,0,1,9,9V9a0,0,0,0,1,0,0H0A0,0,0,0,1,0,9V9A9,9,0,0,1,9,0Z" transform="translate(61 41)" fill="#eff1e7"/>
            <path id="Rectangle_4-3" data-name="Rectangle 4" d="M0,0H29a0,0,0,0,1,0,0V0A14,14,0,0,1,15,14H14A14,14,0,0,1,0,0V0A0,0,0,0,1,0,0Z" transform="translate(70)" fill="#eff1e7"/>
          </g>
          <text id="Color_Set_3" data-name="Color Set 3" transform="translate(0 65)" fill="#29344b" font-size="12" font-family="Roboto-Black, Roboto" font-weight="800" letter-spacing="0.05em"><tspan x="0" y="0">Color Set 3</tspan></text>
          <g id="edit-3-3" data-name="edit-3" transform="translate(93.454 53.041)">
            <path id="Path_9-3" data-name="Path 9" d="M12,20h4.773" transform="translate(-4.227 -8.041)" fill="none" stroke="#29344b" stroke-linecap="round" stroke-linejoin="round" stroke-width="1.5"/>
            <path id="Path_10-3" data-name="Path 10" d="M10.16,3.208A1.125,1.125,0,1,1,11.751,4.8L5.121,11.429,3,11.959l.53-2.121Z" transform="translate(0 0)" fill="none" stroke="#29344b" stroke-linecap="round" stroke-linejoin="round" stroke-width="1.5"/>
          </g>
        </g>
        <g id="item-4" data-name="item" transform="translate(260 264)">
          <rect id="Rectangle_2-4" data-name="Rectangle 2" width="106" height="50" rx="5" fill="#f6e712"/>
          <text id="FOREGROUND-4" data-name="FOREGROUND" transform="translate(8 30)" fill="#7381c8" font-size="13" font-family="Roboto-Bold, Roboto" font-weight="700" letter-spacing="0.05em"><tspan x="0" y="0">FOREGROUND</tspan></text>
          <g id="Particels-4" data-name="Particels">
            <circle id="Ellipse_2-4" data-name="Ellipse 2" cx="3.5" cy="3.5" r="3.5" transform="translate(12 6)" fill="#7381c8"/>
            <path id="Rectangle_3-4" data-name="Rectangle 3" d="M9,0H9a9,9,0,0,1,9,9V9a0,0,0,0,1,0,0H0A0,0,0,0,1,0,9V9A9,9,0,0,1,9,0Z" transform="translate(61 41)" fill="#7381c8"/>
            <path id="Rectangle_4-4" data-name="Rectangle 4" d="M0,0H29a0,0,0,0,1,0,0V0A14,14,0,0,1,15,14H14A14,14,0,0,1,0,0V0A0,0,0,0,1,0,0Z" transform="translate(70)" fill="#7381c8"/>
          </g>
          <text id="Color_Set_4" data-name="Color Set 4" transform="translate(0 65)" fill="#29344b" font-size="12" font-family="Roboto-Black, Roboto" font-weight="800" letter-spacing="0.05em"><tspan x="0" y="0">Color Set 4</tspan></text>
          <g id="edit-3-4" data-name="edit-3" transform="translate(93.454 53.041)">
            <path id="Path_9-4" data-name="Path 9" d="M12,20h4.773" transform="translate(-4.227 -8.041)" fill="none" stroke="#29344b" stroke-linecap="round" stroke-linejoin="round" stroke-width="1.5"/>
            <path id="Path_10-4" data-name="Path 10" d="M10.16,3.208A1.125,1.125,0,1,1,11.751,4.8L5.121,11.429,3,11.959l.53-2.121Z" transform="translate(0 0)" fill="none" stroke="#29344b" stroke-linecap="round" stroke-linejoin="round" stroke-width="1.5"/>
          </g>
        </g>
        <g id="item-5" data-name="item" transform="translate(260 339)">
          <rect id="Rectangle_2-5" data-name="Rectangle 2" width="106" height="50" rx="5" fill="#313131"/>
          <text id="FOREGROUND-5" data-name="FOREGROUND" transform="translate(8 30)" fill="#efefef" font-size="13" font-family="Roboto-Bold, Roboto" font-weight="700" letter-spacing="0.05em"><tspan x="0" y="0">FOREGROUND</tspan></text>
          <g id="Particels-5" data-name="Particels">
            <circle id="Ellipse_2-5" data-name="Ellipse 2" cx="3.5" cy="3.5" r="3.5" transform="translate(12 6)" fill="#efefef"/>
            <path id="Rectangle_3-5" data-name="Rectangle 3" d="M9,0H9a9,9,0,0,1,9,9V9a0,0,0,0,1,0,0H0A0,0,0,0,1,0,9V9A9,9,0,0,1,9,0Z" transform="translate(61 41)" fill="#efefef"/>
            <path id="Rectangle_4-5" data-name="Rectangle 4" d="M0,0H29a0,0,0,0,1,0,0V0A14,14,0,0,1,15,14H14A14,14,0,0,1,0,0V0A0,0,0,0,1,0,0Z" transform="translate(70)" fill="#efefef"/>
          </g>
          <text id="Color_Set_5" data-name="Color Set 5" transform="translate(0 65)" fill="#29344b" font-size="12" font-family="Roboto-Black, Roboto" font-weight="800" letter-spacing="0.05em"><tspan x="0" y="0">Color Set 5</tspan></text>
          <g id="edit-3-5" data-name="edit-3" transform="translate(93.454 53.041)">
            <path id="Path_9-5" data-name="Path 9" d="M12,20h4.773" transform="translate(-4.227 -8.041)" fill="none" stroke="#29344b" stroke-linecap="round" stroke-linejoin="round" stroke-width="1.5"/>
            <path id="Path_10-5" data-name="Path 10" d="M10.16,3.208A1.125,1.125,0,1,1,11.751,4.8L5.121,11.429,3,11.959l.53-2.121Z" transform="translate(0 0)" fill="none" stroke="#29344b" stroke-linecap="round" stroke-linejoin="round" stroke-width="1.5"/>
          </g>
        </g>
      </g>
    </g>
  </g>
</svg>
